<svg xmlns="http://www.w3.org/2000/svg" viewBox="0 0 320 200" role="img" aria-label="Sedm paprsků evropské výzvy vede jen ke konsorciu, malá firma jde kratší cestou přes místní bránu" fill="none">
<title>Sedm paprsků evropské výzvy vede jen ke konsorciu, malá firma jde kratší cestou přes místní bránu</title>
  <circle cx="70" cy="70" r="30" fill="none" stroke="#0B6E4F" stroke-width="1.8"/>
  <path d="M97 83L106 87.4" stroke="#C3CAC4" stroke-width="1.5" stroke-linecap="round" opacity="1"/>
  <path d="M76.7 99.3L78.9 109" stroke="#C3CAC4" stroke-width="1.5" stroke-linecap="round" opacity="1"/>
  <path d="M51.3 93.5L45 101.3" stroke="#C3CAC4" stroke-width="1.5" stroke-linecap="round" opacity="1"/>
  <path d="M40 70L30 70" stroke="#C3CAC4" stroke-width="1.5" stroke-linecap="round" opacity="1"/>
  <path d="M51.3 46.5L45 38.7" stroke="#C3CAC4" stroke-width="1.5" stroke-linecap="round" opacity="1"/>
  <path d="M76.7 40.8L78.9 31" stroke="#C3CAC4" stroke-width="1.5" stroke-linecap="round" opacity="1"/>
  <path d="M97 57L106 52.6" stroke="#C3CAC4" stroke-width="1.5" stroke-linecap="round" opacity="1"/>
  <path d="M100 70H140" stroke="#C3CAC4" stroke-width="1.5" stroke-linecap="round" stroke-dasharray="4 4" opacity="1"/>
  <rect x="140" y="55" width="55" height="30" rx="4" fill="#E7EAE6" stroke="#C3CAC4" stroke-width="1.5" opacity="1"/>
  <path d="M150 64h35" stroke="#C3CAC4" stroke-width="2" stroke-linecap="round" opacity="1"/>
  <path d="M150 73h25" stroke="#C3CAC4" stroke-width="2" stroke-linecap="round" opacity="1"/>
  <path d="M150 82h30" stroke="#C3CAC4" stroke-width="2" stroke-linecap="round" opacity="1"/>
  <rect x="40" y="140" width="36" height="24" rx="4" fill="#E7EAE6" stroke="#C3CAC4" stroke-width="1.5" opacity="1"/>
  <path d="M48 151h20" stroke="#C3CAC4" stroke-width="2" stroke-linecap="round" opacity="1"/>
  <path d="M76 152H106" stroke="#0B6E4F" stroke-width="2" stroke-linecap="round" opacity="1"/>
  <circle cx="122" cy="152" r="14" fill="#CFE3D9" stroke="#0B6E4F" stroke-width="1.8"/>
  <path d="M115 152l5 6 10-12" stroke="#0B6E4F" stroke-width="2" stroke-linecap="round" stroke-linejoin="round"/>
</svg>
